<mxfile host="app.diagrams.net" modified="2023-09-19T17:42:34.096Z" agent="Mozilla/5.0 (Windows NT 10.0; Win64; x64) AppleWebKit/537.36 (KHTML, like Gecko) Chrome/117.0.0.0 Safari/537.36" etag="brVEBpT68OP2Y_M6cBhX" version="21.7.5" type="google">
  <diagram name="Page-1" id="mawq1HtmYVmTmKJBSs5v">
    <mxGraphModel grid="1" page="1" gridSize="10" guides="1" tooltips="1" connect="1" arrows="1" fold="1" pageScale="1" pageWidth="850" pageHeight="1100" math="0" shadow="0">
      <root>
        <mxCell id="0" />
        <mxCell id="1" parent="0" />
        <mxCell id="MZgpbLe4smDWGBu1Gckz-2" value="" style="rounded=0;whiteSpace=wrap;html=1;fillColor=#f8cecc;strokeColor=#b85450;" vertex="1" parent="1">
          <mxGeometry x="80" y="40" width="320" height="520" as="geometry" />
        </mxCell>
        <mxCell id="MZgpbLe4smDWGBu1Gckz-3" value="" style="rounded=0;whiteSpace=wrap;html=1;fillColor=#dae8fc;strokeColor=#6c8ebf;" vertex="1" parent="1">
          <mxGeometry x="440" y="40" width="320" height="520" as="geometry" />
        </mxCell>
        <mxCell id="MZgpbLe4smDWGBu1Gckz-4" value="" style="rounded=0;whiteSpace=wrap;html=1;fillColor=#e1d5e7;strokeColor=#9673a6;" vertex="1" parent="1">
          <mxGeometry x="800" y="40" width="320" height="520" as="geometry" />
        </mxCell>
        <mxCell id="MZgpbLe4smDWGBu1Gckz-5" value="" style="rounded=0;whiteSpace=wrap;html=1;fillColor=#fff2cc;strokeColor=#d6b656;" vertex="1" parent="1">
          <mxGeometry x="1160" y="40" width="320" height="520" as="geometry" />
        </mxCell>
        <mxCell id="MZgpbLe4smDWGBu1Gckz-42" style="edgeStyle=orthogonalEdgeStyle;rounded=0;orthogonalLoop=1;jettySize=auto;html=1;entryX=0;entryY=0.5;entryDx=0;entryDy=0;" edge="1" parent="1" source="MZgpbLe4smDWGBu1Gckz-6" target="MZgpbLe4smDWGBu1Gckz-7">
          <mxGeometry relative="1" as="geometry" />
        </mxCell>
        <mxCell id="MZgpbLe4smDWGBu1Gckz-6" value="&lt;b&gt;&lt;font style=&quot;font-size: 18px;&quot;&gt;Data collection&lt;/font&gt;&lt;/b&gt;" style="rounded=1;whiteSpace=wrap;html=1;glass=0;shadow=1;" vertex="1" parent="1">
          <mxGeometry x="120" y="640" width="240" height="60" as="geometry" />
        </mxCell>
        <mxCell id="MZgpbLe4smDWGBu1Gckz-43" style="edgeStyle=orthogonalEdgeStyle;rounded=0;orthogonalLoop=1;jettySize=auto;html=1;entryX=0;entryY=0.5;entryDx=0;entryDy=0;" edge="1" parent="1" source="MZgpbLe4smDWGBu1Gckz-7" target="MZgpbLe4smDWGBu1Gckz-8">
          <mxGeometry relative="1" as="geometry" />
        </mxCell>
        <mxCell id="MZgpbLe4smDWGBu1Gckz-7" value="&lt;br&gt;&lt;b style=&quot;border-color: var(--border-color); color: rgb(0, 0, 0); font-family: Helvetica; font-size: 12px; font-style: normal; font-variant-ligatures: normal; font-variant-caps: normal; letter-spacing: normal; orphans: 2; text-align: center; text-indent: 0px; text-transform: none; widows: 2; word-spacing: 0px; -webkit-text-stroke-width: 0px; background-color: rgb(251, 251, 251); text-decoration-thickness: initial; text-decoration-style: initial; text-decoration-color: initial;&quot;&gt;&lt;font style=&quot;border-color: var(--border-color); font-size: 18px;&quot;&gt;Data Cleaning&lt;/font&gt;&lt;/b&gt;&lt;br&gt;" style="rounded=1;whiteSpace=wrap;html=1;shadow=1;" vertex="1" parent="1">
          <mxGeometry x="480" y="640" width="240" height="60" as="geometry" />
        </mxCell>
        <mxCell id="MZgpbLe4smDWGBu1Gckz-44" style="edgeStyle=orthogonalEdgeStyle;rounded=0;orthogonalLoop=1;jettySize=auto;html=1;entryX=0;entryY=0.5;entryDx=0;entryDy=0;" edge="1" parent="1" source="MZgpbLe4smDWGBu1Gckz-8" target="MZgpbLe4smDWGBu1Gckz-9">
          <mxGeometry relative="1" as="geometry" />
        </mxCell>
        <mxCell id="MZgpbLe4smDWGBu1Gckz-8" value="&lt;br&gt;&lt;b style=&quot;border-color: var(--border-color); color: rgb(0, 0, 0); font-family: Helvetica; font-size: 12px; font-style: normal; font-variant-ligatures: normal; font-variant-caps: normal; letter-spacing: normal; orphans: 2; text-align: center; text-indent: 0px; text-transform: none; widows: 2; word-spacing: 0px; -webkit-text-stroke-width: 0px; background-color: rgb(251, 251, 251); text-decoration-thickness: initial; text-decoration-style: initial; text-decoration-color: initial;&quot;&gt;&lt;font style=&quot;border-color: var(--border-color); font-size: 18px;&quot;&gt;Data Labelling&lt;/font&gt;&lt;/b&gt;&lt;br&gt;" style="rounded=1;whiteSpace=wrap;html=1;shadow=1;" vertex="1" parent="1">
          <mxGeometry x="840" y="640" width="240" height="60" as="geometry" />
        </mxCell>
        <mxCell id="MZgpbLe4smDWGBu1Gckz-9" value="&lt;br&gt;&lt;b style=&quot;border-color: var(--border-color); color: rgb(0, 0, 0); font-family: Helvetica; font-size: 12px; font-style: normal; font-variant-ligatures: normal; font-variant-caps: normal; letter-spacing: normal; orphans: 2; text-align: center; text-indent: 0px; text-transform: none; widows: 2; word-spacing: 0px; -webkit-text-stroke-width: 0px; background-color: rgb(251, 251, 251); text-decoration-thickness: initial; text-decoration-style: initial; text-decoration-color: initial;&quot;&gt;&lt;font style=&quot;border-color: var(--border-color); font-size: 18px;&quot;&gt;Data Preprocessing&lt;/font&gt;&lt;/b&gt;&lt;br&gt;" style="rounded=1;whiteSpace=wrap;html=1;shadow=1;" vertex="1" parent="1">
          <mxGeometry x="1200" y="640" width="240" height="60" as="geometry" />
        </mxCell>
        <mxCell id="MZgpbLe4smDWGBu1Gckz-16" value="" style="edgeStyle=orthogonalEdgeStyle;rounded=0;orthogonalLoop=1;jettySize=auto;html=1;exitX=0.495;exitY=0.86;exitDx=0;exitDy=0;exitPerimeter=0;" edge="1" parent="1" source="MZgpbLe4smDWGBu1Gckz-10" target="MZgpbLe4smDWGBu1Gckz-11">
          <mxGeometry relative="1" as="geometry">
            <Array as="points">
              <mxPoint x="245" y="310" />
              <mxPoint x="245" y="310" />
            </Array>
          </mxGeometry>
        </mxCell>
        <mxCell id="MZgpbLe4smDWGBu1Gckz-10" value="&lt;div&gt;&lt;br&gt;&lt;/div&gt;&lt;span style=&quot;background-color: initial;&quot;&gt;&lt;div style=&quot;font-size: 18px; font-weight: bold; text-align: left;&quot;&gt;&lt;b style=&quot;background-color: initial;&quot;&gt;&amp;nbsp; &amp;nbsp;1. Social Media platform&amp;nbsp; &amp;nbsp; &amp;nbsp; &amp;nbsp; &amp;nbsp; &amp;nbsp; &amp;nbsp;comments Scraping&lt;/b&gt;&lt;/div&gt;&lt;div style=&quot;text-align: left;&quot;&gt;&lt;span style=&quot;font-size: 18px;&quot;&gt;&lt;b&gt;&lt;br&gt;&lt;/b&gt;&lt;/span&gt;&lt;/div&gt;&lt;/span&gt;&lt;b style=&quot;font-size: 18px; background-color: initial;&quot;&gt;&lt;div style=&quot;text-align: left;&quot;&gt;&lt;b style=&quot;background-color: initial;&quot;&gt;&amp;nbsp; &amp;nbsp; 2. Brand Model Name&amp;nbsp; &amp;nbsp; &amp;nbsp; &amp;nbsp; &amp;nbsp; &amp;nbsp; &amp;nbsp; &amp;nbsp; &amp;nbsp; Scraping&amp;nbsp;&amp;nbsp;&lt;/b&gt;&lt;/div&gt;&lt;/b&gt;&lt;div style=&quot;text-align: left;&quot;&gt;&lt;br&gt;&lt;/div&gt;" style="shape=document;whiteSpace=wrap;html=1;boundedLbl=1;" vertex="1" parent="1">
          <mxGeometry x="120" y="80" width="250" height="200" as="geometry" />
        </mxCell>
        <mxCell id="MZgpbLe4smDWGBu1Gckz-11" value="&lt;br&gt;&lt;span style=&quot;border-color: var(--border-color); background-color: initial;&quot;&gt;&lt;div style=&quot;border-color: var(--border-color); font-size: 18px; font-weight: bold; text-align: left;&quot;&gt;&lt;b style=&quot;border-color: var(--border-color); background-color: initial;&quot;&gt;&lt;br class=&quot;Apple-interchange-newline&quot;&gt;&amp;nbsp; &amp;nbsp;1. Fetched Comments&lt;/b&gt;&lt;/div&gt;&lt;div style=&quot;border-color: var(--border-color); text-align: left;&quot;&gt;&lt;span style=&quot;border-color: var(--border-color); font-size: 18px;&quot;&gt;&lt;b style=&quot;border-color: var(--border-color);&quot;&gt;&lt;br style=&quot;border-color: var(--border-color);&quot;&gt;&lt;/b&gt;&lt;/span&gt;&lt;/div&gt;&lt;/span&gt;&lt;b style=&quot;border-color: var(--border-color); font-size: 18px; background-color: initial;&quot;&gt;&lt;div style=&quot;border-color: var(--border-color); text-align: left;&quot;&gt;&lt;b style=&quot;border-color: var(--border-color); background-color: initial;&quot;&gt;&amp;nbsp; &amp;nbsp; 2. Fetched Brand Names&lt;/b&gt;&lt;/div&gt;&lt;/b&gt;&lt;div style=&quot;border-color: var(--border-color); text-align: left;&quot;&gt;&lt;br style=&quot;border-color: var(--border-color); color: rgb(0, 0, 0); font-family: Helvetica; font-size: 12px; font-style: normal; font-variant-ligatures: normal; font-variant-caps: normal; font-weight: 400; letter-spacing: normal; orphans: 2; text-align: left; text-indent: 0px; text-transform: none; widows: 2; word-spacing: 0px; -webkit-text-stroke-width: 0px; background-color: rgb(251, 251, 251); text-decoration-thickness: initial; text-decoration-style: initial; text-decoration-color: initial;&quot;&gt;&lt;br&gt;&lt;br&gt;&lt;/div&gt;" style="shape=trapezoid;perimeter=trapezoidPerimeter;whiteSpace=wrap;html=1;fixedSize=1;" vertex="1" parent="1">
          <mxGeometry x="120" y="320" width="250" height="160" as="geometry" />
        </mxCell>
        <mxCell id="MZgpbLe4smDWGBu1Gckz-12" value="" style="endArrow=none;dashed=1;html=1;dashPattern=1 3;strokeWidth=4;rounded=0;exitX=0.5;exitY=0;exitDx=0;exitDy=0;" edge="1" parent="1" source="MZgpbLe4smDWGBu1Gckz-6">
          <mxGeometry width="50" height="50" relative="1" as="geometry">
            <mxPoint x="240" y="630" as="sourcePoint" />
            <mxPoint x="240" y="560" as="targetPoint" />
          </mxGeometry>
        </mxCell>
        <mxCell id="MZgpbLe4smDWGBu1Gckz-13" value="" style="endArrow=none;dashed=1;html=1;dashPattern=1 3;strokeWidth=4;rounded=0;exitX=0.5;exitY=0;exitDx=0;exitDy=0;" edge="1" parent="1">
          <mxGeometry width="50" height="50" relative="1" as="geometry">
            <mxPoint x="599.29" y="640" as="sourcePoint" />
            <mxPoint x="599.29" y="560" as="targetPoint" />
          </mxGeometry>
        </mxCell>
        <mxCell id="MZgpbLe4smDWGBu1Gckz-14" value="" style="endArrow=none;dashed=1;html=1;dashPattern=1 3;strokeWidth=4;rounded=0;exitX=0.5;exitY=0;exitDx=0;exitDy=0;" edge="1" parent="1">
          <mxGeometry width="50" height="50" relative="1" as="geometry">
            <mxPoint x="959.29" y="640" as="sourcePoint" />
            <mxPoint x="959.29" y="560" as="targetPoint" />
          </mxGeometry>
        </mxCell>
        <mxCell id="MZgpbLe4smDWGBu1Gckz-15" value="" style="endArrow=none;dashed=1;html=1;dashPattern=1 3;strokeWidth=4;rounded=0;exitX=0.5;exitY=0;exitDx=0;exitDy=0;" edge="1" parent="1">
          <mxGeometry width="50" height="50" relative="1" as="geometry">
            <mxPoint x="1319.29" y="640" as="sourcePoint" />
            <mxPoint x="1319.29" y="560" as="targetPoint" />
          </mxGeometry>
        </mxCell>
        <mxCell id="MZgpbLe4smDWGBu1Gckz-25" value="" style="edgeStyle=orthogonalEdgeStyle;rounded=0;orthogonalLoop=1;jettySize=auto;html=1;" edge="1" parent="1" source="MZgpbLe4smDWGBu1Gckz-17" target="MZgpbLe4smDWGBu1Gckz-22">
          <mxGeometry relative="1" as="geometry" />
        </mxCell>
        <mxCell id="MZgpbLe4smDWGBu1Gckz-17" value="&lt;br&gt;&lt;b style=&quot;border-color: var(--border-color); color: rgb(0, 0, 0); font-family: Helvetica; font-size: 12px; font-style: normal; font-variant-ligatures: normal; font-variant-caps: normal; letter-spacing: normal; orphans: 2; text-indent: 0px; text-transform: none; widows: 2; word-spacing: 0px; -webkit-text-stroke-width: 0px; background-color: initial; text-decoration-thickness: initial; text-decoration-style: initial; text-decoration-color: initial;&quot;&gt;&lt;font style=&quot;border-color: var(--border-color); font-size: 14px;&quot;&gt;&amp;nbsp; &amp;nbsp; &amp;nbsp;Translate English Comment into&amp;nbsp; &amp;nbsp; &amp;nbsp; &amp;nbsp;Urdu and merge with Urdu&amp;nbsp; &amp;nbsp; &amp;nbsp; &amp;nbsp; &amp;nbsp; &amp;nbsp; &amp;nbsp; &amp;nbsp;dataset&lt;/font&gt;&lt;/b&gt;" style="rounded=1;whiteSpace=wrap;html=1;align=left;" vertex="1" parent="1">
          <mxGeometry x="480" y="80" width="240" height="80" as="geometry" />
        </mxCell>
        <mxCell id="MZgpbLe4smDWGBu1Gckz-26" value="" style="edgeStyle=orthogonalEdgeStyle;rounded=0;orthogonalLoop=1;jettySize=auto;html=1;" edge="1" parent="1" source="MZgpbLe4smDWGBu1Gckz-22" target="MZgpbLe4smDWGBu1Gckz-23">
          <mxGeometry relative="1" as="geometry" />
        </mxCell>
        <mxCell id="MZgpbLe4smDWGBu1Gckz-22" value="&lt;br&gt;&lt;div style=&quot;text-align: left;&quot;&gt;&lt;font style=&quot;background-color: initial; border-color: var(--border-color); font-size: 14px;&quot;&gt;&amp;nbsp; &amp;nbsp;&lt;/font&gt;&lt;font style=&quot;background-color: initial; border-color: var(--border-color); font-size: 14px; font-weight: bold;&quot;&gt;Drop all Comments which do not&amp;nbsp; &amp;nbsp; &amp;nbsp;have username, brand name, and&amp;nbsp; &amp;nbsp; &amp;nbsp;mistranslated&lt;/font&gt;&lt;/div&gt;" style="rounded=1;whiteSpace=wrap;html=1;" vertex="1" parent="1">
          <mxGeometry x="480" y="200" width="240" height="80" as="geometry" />
        </mxCell>
        <mxCell id="MZgpbLe4smDWGBu1Gckz-27" value="" style="edgeStyle=orthogonalEdgeStyle;rounded=0;orthogonalLoop=1;jettySize=auto;html=1;" edge="1" parent="1" source="MZgpbLe4smDWGBu1Gckz-23" target="MZgpbLe4smDWGBu1Gckz-24">
          <mxGeometry relative="1" as="geometry" />
        </mxCell>
        <mxCell id="MZgpbLe4smDWGBu1Gckz-23" value="&lt;br&gt;&lt;div style=&quot;text-align: left;&quot;&gt;&lt;b style=&quot;background-color: initial; border-color: var(--border-color);&quot;&gt;&lt;font style=&quot;border-color: var(--border-color); font-size: 14px;&quot;&gt;&amp;nbsp; &amp;nbsp;Removal of Emojis, URLs,&amp;nbsp; &amp;nbsp; &amp;nbsp; &amp;nbsp; &amp;nbsp; &amp;nbsp; &amp;nbsp; &amp;nbsp; &amp;nbsp;Special Characters, and&amp;nbsp; &amp;nbsp; &amp;nbsp; &amp;nbsp; &amp;nbsp; &amp;nbsp; &amp;nbsp; &amp;nbsp; &amp;nbsp; &amp;nbsp; &amp;nbsp;punctuations&lt;/font&gt;&lt;/b&gt;&lt;/div&gt;" style="rounded=1;whiteSpace=wrap;html=1;" vertex="1" parent="1">
          <mxGeometry x="480" y="320" width="240" height="80" as="geometry" />
        </mxCell>
        <mxCell id="MZgpbLe4smDWGBu1Gckz-24" value="&lt;br&gt;&lt;b style=&quot;border-color: var(--border-color); color: rgb(0, 0, 0); font-family: Helvetica; font-size: 12px; font-style: normal; font-variant-ligatures: normal; font-variant-caps: normal; letter-spacing: normal; orphans: 2; text-indent: 0px; text-transform: none; widows: 2; word-spacing: 0px; -webkit-text-stroke-width: 0px; background-color: initial; text-decoration-thickness: initial; text-decoration-style: initial; text-decoration-color: initial;&quot;&gt;&lt;font style=&quot;border-color: var(--border-color); font-size: 14px;&quot;&gt;&amp;nbsp; &amp;nbsp;Dictionary based NER System&lt;/font&gt;&lt;/b&gt;&lt;br&gt;" style="rounded=1;whiteSpace=wrap;html=1;align=left;" vertex="1" parent="1">
          <mxGeometry x="480" y="440" width="240" height="80" as="geometry" />
        </mxCell>
        <mxCell id="MZgpbLe4smDWGBu1Gckz-32" value="" style="edgeStyle=orthogonalEdgeStyle;rounded=0;orthogonalLoop=1;jettySize=auto;html=1;" edge="1" parent="1" source="MZgpbLe4smDWGBu1Gckz-28" target="MZgpbLe4smDWGBu1Gckz-30">
          <mxGeometry relative="1" as="geometry" />
        </mxCell>
        <mxCell id="MZgpbLe4smDWGBu1Gckz-28" value="&lt;br&gt;&lt;span style=&quot;border-color: var(--border-color); color: rgb(0, 0, 0); font-family: Helvetica; font-size: 14px; font-style: normal; font-variant-ligatures: normal; font-variant-caps: normal; font-weight: 400; letter-spacing: normal; orphans: 2; text-indent: 0px; text-transform: none; widows: 2; word-spacing: 0px; -webkit-text-stroke-width: 0px; background-color: rgb(251, 251, 251); text-decoration-thickness: initial; text-decoration-style: initial; text-decoration-color: initial;&quot;&gt;&amp;nbsp;&lt;span&gt;&amp;nbsp;&lt;/span&gt;&lt;b style=&quot;border-color: var(--border-color);&quot;&gt;&lt;font style=&quot;border-color: var(--border-color);&quot;&gt;.&lt;/font&gt;&lt;/b&gt;&amp;nbsp;&lt;/span&gt;&lt;b style=&quot;border-color: var(--border-color); color: rgb(0, 0, 0); font-family: Helvetica; font-size: 14px; font-style: normal; font-variant-ligatures: normal; font-variant-caps: normal; letter-spacing: normal; orphans: 2; text-indent: 0px; text-transform: none; widows: 2; word-spacing: 0px; -webkit-text-stroke-width: 0px; background-color: rgb(251, 251, 251); text-decoration-thickness: initial; text-decoration-style: initial; text-decoration-color: initial;&quot;&gt;Bag of Brand List&lt;/b&gt;&lt;b style=&quot;border-color: var(--border-color); color: rgb(0, 0, 0); font-family: Helvetica; font-size: 14px; font-style: normal; font-variant-ligatures: normal; font-variant-caps: normal; letter-spacing: normal; orphans: 2; text-indent: 0px; text-transform: none; widows: 2; word-spacing: 0px; -webkit-text-stroke-width: 0px; background-color: rgb(251, 251, 251); text-decoration-thickness: initial; text-decoration-style: initial; text-decoration-color: initial;&quot;&gt;&lt;br style=&quot;border-color: var(--border-color);&quot;&gt;&lt;/b&gt;&lt;span style=&quot;border-color: var(--border-color); color: rgb(0, 0, 0); font-family: Helvetica; font-size: 14px; font-style: normal; font-variant-ligatures: normal; font-variant-caps: normal; font-weight: 400; letter-spacing: normal; orphans: 2; text-indent: 0px; text-transform: none; widows: 2; word-spacing: 0px; -webkit-text-stroke-width: 0px; background-color: initial; text-decoration-thickness: initial; text-decoration-style: initial; text-decoration-color: initial;&quot;&gt;&lt;b style=&quot;border-color: var(--border-color);&quot;&gt;&amp;nbsp;&lt;span&gt;&amp;nbsp;&lt;/span&gt;&lt;b style=&quot;border-color: var(--border-color);&quot;&gt;&lt;font style=&quot;border-color: var(--border-color);&quot;&gt;.&lt;/font&gt;&lt;/b&gt;&amp;nbsp;NER system and Regular&amp;nbsp; &amp;nbsp; &amp;nbsp; &amp;nbsp; &amp;nbsp; &amp;nbsp; &amp;nbsp; &amp;nbsp; Expressions to accurately&amp;nbsp; &amp;nbsp; &amp;nbsp; &amp;nbsp; &amp;nbsp; &amp;nbsp; &amp;nbsp; identify brand name&lt;/b&gt;&lt;/span&gt;&lt;br&gt;" style="rounded=1;whiteSpace=wrap;html=1;align=left;" vertex="1" parent="1">
          <mxGeometry x="850" y="80" width="230" height="110" as="geometry" />
        </mxCell>
        <mxCell id="MZgpbLe4smDWGBu1Gckz-33" value="" style="edgeStyle=orthogonalEdgeStyle;rounded=0;orthogonalLoop=1;jettySize=auto;html=1;" edge="1" parent="1" source="MZgpbLe4smDWGBu1Gckz-30" target="MZgpbLe4smDWGBu1Gckz-31">
          <mxGeometry relative="1" as="geometry" />
        </mxCell>
        <mxCell id="MZgpbLe4smDWGBu1Gckz-30" value="&lt;br&gt;&lt;b style=&quot;border-color: var(--border-color); color: rgb(0, 0, 0); font-family: Helvetica; font-size: 12px; font-style: normal; font-variant-ligatures: normal; font-variant-caps: normal; letter-spacing: normal; orphans: 2; text-indent: 0px; text-transform: none; widows: 2; word-spacing: 0px; -webkit-text-stroke-width: 0px; background-color: rgb(251, 251, 251); text-decoration-thickness: initial; text-decoration-style: initial; text-decoration-color: initial;&quot;&gt;&lt;font style=&quot;border-color: var(--border-color); font-size: 14px;&quot;&gt;&amp;nbsp; &amp;nbsp;Identification of gender from&amp;nbsp; &amp;nbsp; &amp;nbsp; &amp;nbsp; &amp;nbsp;username&lt;/font&gt;&lt;/b&gt;" style="rounded=1;whiteSpace=wrap;html=1;align=left;" vertex="1" parent="1">
          <mxGeometry x="850" y="280" width="230" height="60" as="geometry" />
        </mxCell>
        <mxCell id="MZgpbLe4smDWGBu1Gckz-31" value="&lt;br&gt;&lt;b style=&quot;border-color: var(--border-color); color: rgb(0, 0, 0); font-family: Helvetica; font-size: 12px; font-style: normal; font-variant-ligatures: normal; font-variant-caps: normal; letter-spacing: normal; orphans: 2; text-indent: 0px; text-transform: none; widows: 2; word-spacing: 0px; -webkit-text-stroke-width: 0px; background-color: rgb(251, 251, 251); text-decoration-thickness: initial; text-decoration-style: initial; text-decoration-color: initial;&quot;&gt;&lt;font style=&quot;border-color: var(--border-color); font-size: 14px;&quot;&gt;&amp;nbsp; Manually Annotation of&amp;nbsp; &amp;nbsp; &amp;nbsp; &amp;nbsp; &amp;nbsp; &amp;nbsp; &amp;nbsp; &amp;nbsp; &amp;nbsp; Sentiment&lt;/font&gt;&lt;/b&gt;" style="rounded=1;whiteSpace=wrap;html=1;align=left;" vertex="1" parent="1">
          <mxGeometry x="850" y="420" width="230" height="100" as="geometry" />
        </mxCell>
        <mxCell id="MZgpbLe4smDWGBu1Gckz-37" value="" style="edgeStyle=orthogonalEdgeStyle;rounded=0;orthogonalLoop=1;jettySize=auto;html=1;" edge="1" parent="1" source="MZgpbLe4smDWGBu1Gckz-34" target="MZgpbLe4smDWGBu1Gckz-35">
          <mxGeometry relative="1" as="geometry">
            <Array as="points">
              <mxPoint x="1315" y="230" />
              <mxPoint x="1315" y="230" />
            </Array>
          </mxGeometry>
        </mxCell>
        <mxCell id="MZgpbLe4smDWGBu1Gckz-34" value="&lt;br&gt;&lt;br style=&quot;border-color: var(--border-color); color: rgb(0, 0, 0); font-family: Helvetica; font-size: 12px; font-style: normal; font-variant-ligatures: normal; font-variant-caps: normal; font-weight: 400; letter-spacing: normal; orphans: 2; text-align: left; text-indent: 0px; text-transform: none; widows: 2; word-spacing: 0px; -webkit-text-stroke-width: 0px; background-color: rgb(251, 251, 251); text-decoration-thickness: initial; text-decoration-style: initial; text-decoration-color: initial;&quot;&gt;&lt;b style=&quot;border-color: var(--border-color); color: rgb(0, 0, 0); font-family: Helvetica; font-size: 12px; font-style: normal; font-variant-ligatures: normal; font-variant-caps: normal; letter-spacing: normal; orphans: 2; text-align: left; text-indent: 0px; text-transform: none; widows: 2; word-spacing: 0px; -webkit-text-stroke-width: 0px; text-decoration-thickness: initial; text-decoration-style: initial; text-decoration-color: initial; background-color: rgb(251, 251, 251);&quot;&gt;&lt;font style=&quot;border-color: var(--border-color); font-size: 14px;&quot;&gt;&amp;nbsp; &amp;nbsp;Stop Words Removal&lt;/font&gt;&lt;/b&gt;&lt;br&gt;" style="rounded=1;whiteSpace=wrap;html=1;" vertex="1" parent="1">
          <mxGeometry x="1190" y="80" width="250" height="80" as="geometry" />
        </mxCell>
        <mxCell id="MZgpbLe4smDWGBu1Gckz-38" value="" style="edgeStyle=orthogonalEdgeStyle;rounded=0;orthogonalLoop=1;jettySize=auto;html=1;" edge="1" parent="1" source="MZgpbLe4smDWGBu1Gckz-35" target="MZgpbLe4smDWGBu1Gckz-36">
          <mxGeometry relative="1" as="geometry" />
        </mxCell>
        <mxCell id="MZgpbLe4smDWGBu1Gckz-35" value="&lt;br&gt;&lt;br style=&quot;border-color: var(--border-color); color: rgb(0, 0, 0); font-family: Helvetica; font-size: 12px; font-style: normal; font-variant-ligatures: normal; font-variant-caps: normal; font-weight: 400; letter-spacing: normal; orphans: 2; text-align: center; text-indent: 0px; text-transform: none; widows: 2; word-spacing: 0px; -webkit-text-stroke-width: 0px; background-color: rgb(251, 251, 251); text-decoration-thickness: initial; text-decoration-style: initial; text-decoration-color: initial;&quot;&gt;&lt;br style=&quot;border-color: var(--border-color); color: rgb(0, 0, 0); font-family: Helvetica; font-size: 12px; font-style: normal; font-variant-ligatures: normal; font-variant-caps: normal; font-weight: 400; letter-spacing: normal; orphans: 2; text-indent: 0px; text-transform: none; widows: 2; word-spacing: 0px; -webkit-text-stroke-width: 0px; text-decoration-thickness: initial; text-decoration-style: initial; text-decoration-color: initial; text-align: left; background-color: rgb(251, 251, 251);&quot;&gt;&lt;b style=&quot;border-color: var(--border-color); color: rgb(0, 0, 0); font-family: Helvetica; font-size: 12px; font-style: normal; font-variant-ligatures: normal; font-variant-caps: normal; letter-spacing: normal; orphans: 2; text-indent: 0px; text-transform: none; widows: 2; word-spacing: 0px; -webkit-text-stroke-width: 0px; text-decoration-thickness: initial; text-decoration-style: initial; text-decoration-color: initial; text-align: left; background-color: rgb(251, 251, 251);&quot;&gt;&lt;font style=&quot;border-color: var(--border-color); font-size: 14px;&quot;&gt;&amp;nbsp; &amp;nbsp;Tokenization&lt;/font&gt;&lt;/b&gt;&lt;br&gt;" style="shape=trapezoid;perimeter=trapezoidPerimeter;whiteSpace=wrap;html=1;fixedSize=1;" vertex="1" parent="1">
          <mxGeometry x="1200" y="260" width="240" height="70" as="geometry" />
        </mxCell>
        <mxCell id="MZgpbLe4smDWGBu1Gckz-36" value="&lt;br style=&quot;border-color: var(--border-color);&quot;&gt;&lt;br style=&quot;border-color: var(--border-color);&quot;&gt;&lt;br style=&quot;border-color: var(--border-color); text-align: left;&quot;&gt;&lt;b style=&quot;border-color: var(--border-color); text-align: left;&quot;&gt;&lt;font style=&quot;border-color: var(--border-color); font-size: 14px;&quot;&gt;&amp;nbsp; &amp;nbsp;Stemming&lt;/font&gt;&lt;/b&gt;" style="rounded=1;whiteSpace=wrap;html=1;" vertex="1" parent="1">
          <mxGeometry x="1190" y="410" width="260" height="60" as="geometry" />
        </mxCell>
        <mxCell id="MZgpbLe4smDWGBu1Gckz-39" value="" style="rounded=0;whiteSpace=wrap;html=1;fillColor=#d5e8d4;strokeColor=#82b366;" vertex="1" parent="1">
          <mxGeometry x="830" y="795" width="610" height="170" as="geometry" />
        </mxCell>
        <mxCell id="MZgpbLe4smDWGBu1Gckz-40" value="&lt;br style=&quot;border-color: var(--border-color); color: rgb(0, 0, 0); font-family: Helvetica; font-size: 12px; font-style: normal; font-variant-ligatures: normal; font-variant-caps: normal; font-weight: 400; letter-spacing: normal; orphans: 2; text-align: center; text-indent: 0px; text-transform: none; widows: 2; word-spacing: 0px; -webkit-text-stroke-width: 0px; background-color: rgb(251, 251, 251); text-decoration-thickness: initial; text-decoration-style: initial; text-decoration-color: initial;&quot;&gt;&lt;span style=&quot;font-size: 18px;&quot;&gt;&lt;b&gt;Test and validate&lt;/b&gt;&lt;/span&gt;" style="rounded=1;whiteSpace=wrap;html=1;" vertex="1" parent="1">
          <mxGeometry x="840" y="850" width="190" height="60" as="geometry" />
        </mxCell>
        <mxCell id="MZgpbLe4smDWGBu1Gckz-41" value="&lt;br style=&quot;border-color: var(--border-color); color: rgb(0, 0, 0); font-family: Helvetica; font-size: 12px; font-style: normal; font-variant-ligatures: normal; font-variant-caps: normal; font-weight: 400; letter-spacing: normal; orphans: 2; text-align: center; text-indent: 0px; text-transform: none; widows: 2; word-spacing: 0px; -webkit-text-stroke-width: 0px; text-decoration-thickness: initial; text-decoration-style: initial; text-decoration-color: initial; background-color: rgb(251, 251, 251);&quot;&gt;&lt;span style=&quot;border-color: var(--border-color); color: rgb(0, 0, 0); font-family: Helvetica; font-style: normal; font-variant-ligatures: normal; font-variant-caps: normal; font-weight: 400; letter-spacing: normal; orphans: 2; text-align: center; text-indent: 0px; text-transform: none; widows: 2; word-spacing: 0px; -webkit-text-stroke-width: 0px; background-color: rgb(251, 251, 251); text-decoration-thickness: initial; text-decoration-style: initial; text-decoration-color: initial; font-size: 18px;&quot;&gt;&lt;b style=&quot;border-color: var(--border-color);&quot;&gt;Train the classifier Models&lt;/b&gt;&lt;/span&gt;" style="rounded=1;whiteSpace=wrap;html=1;" vertex="1" parent="1">
          <mxGeometry x="1120" y="850" width="305" height="60" as="geometry" />
        </mxCell>
        <mxCell id="MZgpbLe4smDWGBu1Gckz-47" value="" style="endArrow=classic;html=1;rounded=0;entryX=1;entryY=0.5;entryDx=0;entryDy=0;" edge="1" parent="1" target="MZgpbLe4smDWGBu1Gckz-41">
          <mxGeometry width="50" height="50" relative="1" as="geometry">
            <mxPoint x="1440" y="670" as="sourcePoint" />
            <mxPoint x="1530" y="600" as="targetPoint" />
            <Array as="points">
              <mxPoint x="1560" y="670" />
              <mxPoint x="1560" y="880" />
            </Array>
          </mxGeometry>
        </mxCell>
        <mxCell id="MZgpbLe4smDWGBu1Gckz-50" value="" style="endArrow=classic;html=1;rounded=0;" edge="1" parent="1">
          <mxGeometry width="50" height="50" relative="1" as="geometry">
            <mxPoint x="1120" y="880" as="sourcePoint" />
            <mxPoint x="1030" y="880" as="targetPoint" />
          </mxGeometry>
        </mxCell>
        <mxCell id="MZgpbLe4smDWGBu1Gckz-51" value="" style="endArrow=classic;html=1;rounded=0;entryX=0.5;entryY=0;entryDx=0;entryDy=0;" edge="1" parent="1" target="MZgpbLe4smDWGBu1Gckz-41">
          <mxGeometry width="50" height="50" relative="1" as="geometry">
            <mxPoint x="930" y="850" as="sourcePoint" />
            <mxPoint x="1150" y="750" as="targetPoint" />
            <Array as="points">
              <mxPoint x="930" y="820" />
              <mxPoint x="1273" y="820" />
            </Array>
          </mxGeometry>
        </mxCell>
        <mxCell id="MZgpbLe4smDWGBu1Gckz-52" value="&lt;b&gt;Train Dataset 80%&lt;/b&gt;" style="shape=cylinder3;whiteSpace=wrap;html=1;boundedLbl=1;backgroundOutline=1;size=15;" vertex="1" parent="1">
          <mxGeometry x="530" y="795" width="80" height="80" as="geometry" />
        </mxCell>
        <mxCell id="MZgpbLe4smDWGBu1Gckz-53" value="&lt;b&gt;Test Dataset 20%&lt;/b&gt;" style="shape=cylinder3;whiteSpace=wrap;html=1;boundedLbl=1;backgroundOutline=1;size=15;" vertex="1" parent="1">
          <mxGeometry x="530" y="885" width="80" height="80" as="geometry" />
        </mxCell>
        <mxCell id="MZgpbLe4smDWGBu1Gckz-60" value="" style="html=1;verticalAlign=bottom;endArrow=open;dashed=1;endSize=8;curved=1;entryX=1;entryY=0.5;entryDx=0;entryDy=0;entryPerimeter=0;" edge="1" parent="1" target="MZgpbLe4smDWGBu1Gckz-52">
          <mxGeometry relative="1" as="geometry">
            <mxPoint x="830" y="879.29" as="sourcePoint" />
            <mxPoint x="750" y="879.29" as="targetPoint" />
            <Array as="points">
              <mxPoint x="740" y="800" />
            </Array>
          </mxGeometry>
        </mxCell>
        <mxCell id="MZgpbLe4smDWGBu1Gckz-61" value="" style="endArrow=block;dashed=1;endFill=0;endSize=12;html=1;curved=1;entryX=1;entryY=0.5;entryDx=0;entryDy=0;entryPerimeter=0;" edge="1" parent="1" target="MZgpbLe4smDWGBu1Gckz-53">
          <mxGeometry width="160" relative="1" as="geometry">
            <mxPoint x="830" y="879.29" as="sourcePoint" />
            <mxPoint x="990" y="879.29" as="targetPoint" />
            <Array as="points">
              <mxPoint x="730" y="950" />
            </Array>
          </mxGeometry>
        </mxCell>
        <mxCell id="MZgpbLe4smDWGBu1Gckz-72" style="edgeStyle=orthogonalEdgeStyle;rounded=0;orthogonalLoop=1;jettySize=auto;html=1;entryX=1;entryY=0.5;entryDx=0;entryDy=0;" edge="1" parent="1" source="MZgpbLe4smDWGBu1Gckz-63" target="MZgpbLe4smDWGBu1Gckz-73">
          <mxGeometry relative="1" as="geometry">
            <mxPoint x="730" y="1165" as="targetPoint" />
          </mxGeometry>
        </mxCell>
        <mxCell id="MZgpbLe4smDWGBu1Gckz-63" value="" style="rounded=0;whiteSpace=wrap;html=1;fillColor=#d5e8d4;strokeColor=#82b366;" vertex="1" parent="1">
          <mxGeometry x="800" y="1080" width="680" height="170" as="geometry" />
        </mxCell>
        <mxCell id="MZgpbLe4smDWGBu1Gckz-64" value="&lt;br style=&quot;border-color: var(--border-color); color: rgb(0, 0, 0); font-family: Helvetica; font-size: 12px; font-style: normal; font-variant-ligatures: normal; font-variant-caps: normal; font-weight: 400; letter-spacing: normal; orphans: 2; text-align: center; text-indent: 0px; text-transform: none; widows: 2; word-spacing: 0px; -webkit-text-stroke-width: 0px; background-color: rgb(251, 251, 251); text-decoration-thickness: initial; text-decoration-style: initial; text-decoration-color: initial;&quot;&gt;&lt;span style=&quot;font-size: 18px;&quot;&gt;&lt;b&gt;Gender Prediction&lt;/b&gt;&lt;/span&gt;" style="rounded=1;whiteSpace=wrap;html=1;" vertex="1" parent="1">
          <mxGeometry x="830" y="1140" width="190" height="60" as="geometry" />
        </mxCell>
        <mxCell id="MZgpbLe4smDWGBu1Gckz-65" value="&lt;b&gt;&lt;font style=&quot;font-size: 18px;&quot;&gt;Name Entity Recognition&lt;/font&gt;&lt;/b&gt;" style="rounded=1;whiteSpace=wrap;html=1;" vertex="1" parent="1">
          <mxGeometry x="1040" y="1140" width="190" height="60" as="geometry" />
        </mxCell>
        <mxCell id="MZgpbLe4smDWGBu1Gckz-66" value="&lt;b&gt;&lt;font style=&quot;font-size: 18px;&quot;&gt;Sentiment Analysis&lt;/font&gt;&lt;/b&gt;" style="rounded=1;whiteSpace=wrap;html=1;" vertex="1" parent="1">
          <mxGeometry x="1250" y="1140" width="190" height="60" as="geometry" />
        </mxCell>
        <mxCell id="MZgpbLe4smDWGBu1Gckz-67" style="edgeStyle=orthogonalEdgeStyle;rounded=0;orthogonalLoop=1;jettySize=auto;html=1;exitX=0.5;exitY=1;exitDx=0;exitDy=0;" edge="1" parent="1" source="MZgpbLe4smDWGBu1Gckz-64" target="MZgpbLe4smDWGBu1Gckz-64">
          <mxGeometry relative="1" as="geometry" />
        </mxCell>
        <mxCell id="MZgpbLe4smDWGBu1Gckz-68" value="" style="endArrow=classic;html=1;dashed=1;curved=1;entryX=0.5;entryY=0;entryDx=0;entryDy=0;strokeWidth=2;" edge="1" parent="1" target="MZgpbLe4smDWGBu1Gckz-66">
          <mxGeometry width="50" height="50" relative="1" as="geometry">
            <mxPoint x="1270" y="910" as="sourcePoint" />
            <mxPoint x="1320" y="860" as="targetPoint" />
            <Array as="points">
              <mxPoint x="1360" y="1010" />
            </Array>
          </mxGeometry>
        </mxCell>
        <mxCell id="MZgpbLe4smDWGBu1Gckz-69" value="" style="endArrow=classic;html=1;dashed=1;curved=1;entryX=0.5;entryY=0;entryDx=0;entryDy=0;strokeWidth=2;" edge="1" parent="1" target="MZgpbLe4smDWGBu1Gckz-65">
          <mxGeometry width="50" height="50" relative="1" as="geometry">
            <mxPoint x="1280" y="920" as="sourcePoint" />
            <mxPoint x="1355" y="1150" as="targetPoint" />
            <Array as="points">
              <mxPoint x="1370" y="1020" />
            </Array>
          </mxGeometry>
        </mxCell>
        <mxCell id="MZgpbLe4smDWGBu1Gckz-70" value="" style="endArrow=classic;html=1;dashed=1;curved=1;entryX=0.5;entryY=0;entryDx=0;entryDy=0;strokeWidth=2;" edge="1" parent="1" target="MZgpbLe4smDWGBu1Gckz-64">
          <mxGeometry width="50" height="50" relative="1" as="geometry">
            <mxPoint x="1290" y="930" as="sourcePoint" />
            <mxPoint x="1145" y="1150" as="targetPoint" />
            <Array as="points">
              <mxPoint x="1380" y="1030" />
            </Array>
          </mxGeometry>
        </mxCell>
        <mxCell id="MZgpbLe4smDWGBu1Gckz-79" style="edgeStyle=orthogonalEdgeStyle;rounded=0;orthogonalLoop=1;jettySize=auto;html=1;entryX=1;entryY=0.5;entryDx=0;entryDy=0;" edge="1" parent="1" source="MZgpbLe4smDWGBu1Gckz-73" target="MZgpbLe4smDWGBu1Gckz-78">
          <mxGeometry relative="1" as="geometry" />
        </mxCell>
        <mxCell id="MZgpbLe4smDWGBu1Gckz-73" value="" style="rounded=0;whiteSpace=wrap;html=1;fillColor=#f8cecc;strokeColor=#b85450;" vertex="1" parent="1">
          <mxGeometry x="440" y="1080" width="280" height="170" as="geometry" />
        </mxCell>
        <mxCell id="MZgpbLe4smDWGBu1Gckz-77" value="&lt;font style=&quot;font-size: 18px;&quot;&gt;&lt;b&gt;Implementation of Explainable AI&lt;/b&gt;&lt;/font&gt;" style="shape=hexagon;perimeter=hexagonPerimeter2;whiteSpace=wrap;html=1;fixedSize=1;" vertex="1" parent="1">
          <mxGeometry x="500" y="1100" width="170" height="130" as="geometry" />
        </mxCell>
        <mxCell id="MZgpbLe4smDWGBu1Gckz-78" value="&lt;b style=&quot;border-color: var(--border-color);&quot;&gt;&lt;font style=&quot;border-color: var(--border-color); font-size: 14px;&quot;&gt;Local Interpretable&lt;br style=&quot;border-color: var(--border-color);&quot;&gt;Model-agnostic&lt;br style=&quot;border-color: var(--border-color);&quot;&gt;Explanations (LIME) XAI&lt;/font&gt;&lt;/b&gt;" style="rounded=1;whiteSpace=wrap;html=1;fillColor=#ffe6cc;strokeColor=#d79b00;" vertex="1" parent="1">
          <mxGeometry x="200" y="1120" width="120" height="90" as="geometry" />
        </mxCell>
      </root>
    </mxGraphModel>
  </diagram>
</mxfile>
